<svg width="150" height="150" viewBox="0 0 150 150" fill="none" xmlns="http://www.w3.org/2000/svg">
<g id="Symbol Alternative.svg" clip-path="url(#clip0_60_194)">
<g id="Icon_Shape">
<path id="Vector" d="M150 111.935C150 112.757 149.974 114.529 149.923 115.916C149.795 119.281 149.538 123.622 149.127 125.599C148.51 128.579 147.611 131.378 146.404 133.716C144.991 136.49 143.193 138.955 141.036 141.087C138.904 143.219 136.438 145.017 133.664 146.43C131.327 147.637 128.502 148.536 125.497 149.152C123.545 149.538 119.229 149.82 115.89 149.923C114.503 149.974 112.731 150 111.909 150H38.0394C37.2175 150 35.4452 149.974 34.0582 149.923C30.6935 149.795 26.3527 149.538 24.375 149.127C21.3955 148.51 18.5959 147.611 16.2586 146.404C13.4846 144.991 11.0188 143.193 8.88699 141.036C6.75514 138.904 4.95719 136.438 3.54452 133.664C2.33733 131.327 1.43836 128.502 0.821918 125.497C0.436644 123.545 0.15411 119.229 0.0513699 115.89C0.0256849 114.529 0 112.757 0 111.935V38.0651C0 37.2431 0.0256849 35.4709 0.0770548 34.0839C0.205479 30.7192 0.462329 26.3784 0.873288 24.4007C1.48973 21.4212 2.3887 18.6216 3.59589 16.2842C5.00856 13.5103 6.80651 11.0445 8.93836 8.91267C11.0702 6.78082 13.536 4.98288 16.3099 3.57021C18.6473 2.36301 21.4726 1.46404 24.4777 0.847603C26.4298 0.462329 30.7449 0.179795 34.0839 0.0770548C35.4709 0.0256849 37.2431 0 38.0651 0H111.935C112.757 0 114.529 0.0256849 115.916 0.0770548C119.281 0.205479 123.622 0.462329 125.599 0.873288C128.579 1.48973 131.378 2.3887 133.716 3.59589C136.49 5.00856 138.955 6.80651 141.087 8.96404C143.219 11.0959 145.017 13.5616 146.43 16.3356C147.637 18.6729 148.536 21.4983 149.152 24.5034C149.538 26.4555 149.82 30.7705 149.923 34.1096C149.974 35.4966 150 37.2688 150 38.0908V111.935Z" fill="url(#paint0_linear_60_194)"/>
</g>
<g id="WA_Logo">
<g id="Group">
<path id="Vector_2" fill-rule="evenodd" clip-rule="evenodd" d="M114.452 35.9076C104.357 25.8134 90.9243 20.2397 76.6177 20.2397C47.1314 20.2397 23.1674 44.2295 23.1417 73.6901C23.1417 83.1165 25.6075 92.3117 30.2821 100.402L22.7051 128.116L51.0612 120.694C58.8695 124.957 67.6537 127.192 76.6177 127.192H76.6434C106.104 127.192 130.094 103.202 130.119 73.7415C130.119 59.435 124.546 46.0017 114.452 35.9076ZM76.6434 118.151C68.6554 118.151 60.8215 115.993 54.015 111.961L52.3969 111.01L35.5732 115.428L40.0681 99.0411L39.015 97.3716C34.5715 90.3082 32.2085 82.1147 32.2085 73.7158C32.2085 49.2123 52.1657 29.2808 76.6691 29.2808C88.5356 29.2808 99.7085 33.9041 108.082 42.3031C116.481 50.7021 121.104 61.875 121.078 73.7415C121.053 98.2192 101.121 118.151 76.6434 118.151ZM101.018 84.8887C99.6828 84.2209 93.1075 80.9846 91.9003 80.548C90.6674 80.1113 89.7941 79.8802 88.8951 81.2158C87.9962 82.5514 85.4534 85.5565 84.6571 86.4555C83.8866 87.3545 83.0904 87.4572 81.7547 86.7894C80.4191 86.1216 76.1041 84.7089 71.0184 80.1627C67.0373 76.6182 64.366 72.2517 63.5955 70.9161C62.8249 69.5805 63.5184 68.8613 64.1862 68.1935C64.777 67.6028 65.5219 66.6267 66.1897 65.8562C66.8575 65.0856 67.0886 64.5206 67.5253 63.6216C67.9619 62.7226 67.7565 61.9521 67.4225 61.2843C67.0886 60.6165 64.4174 54.0411 63.313 51.3699C62.2342 48.7757 61.1297 49.1096 60.3078 49.0839C59.5373 49.0326 58.6383 49.0326 57.7393 49.0326C56.8404 49.0326 55.402 49.3665 54.1691 50.7021C52.9362 52.0377 49.4945 55.274 49.4945 61.8493C49.4945 68.4247 54.2719 74.7689 54.9397 75.6678C55.6075 76.5668 64.366 90.0514 77.7736 95.8305C80.9585 97.2175 83.4499 98.0394 85.402 98.6558C88.6126 99.6832 91.515 99.5291 93.8267 99.1952C96.3951 98.81 101.738 95.9589 102.842 92.8511C103.947 89.7432 103.947 87.0463 103.613 86.5069C103.227 85.8904 102.354 85.5565 101.018 84.8887Z" fill="white"/>
</g>
</g>
</g>
<defs>
<linearGradient id="paint0_linear_60_194" x1="75.0057" y1="150.011" x2="75.0057" y2="0" gradientUnits="userSpaceOnUse">
<stop stop-color="#25CF43"/>
<stop offset="1" stop-color="#61FD7D"/>
</linearGradient>
<clipPath id="clip0_60_194">
<rect width="150" height="150" fill="white"/>
</clipPath>
</defs>
</svg>
